<svg xmlns="http://www.w3.org/2000/svg" width="38" height="38" viewBox="0 0 38 38">
  <g id="Grupo_5718" data-name="Grupo 5718" transform="translate(-1669 -44)">
    <g id="Trazado_4767" data-name="Trazado 4767" transform="translate(1669 44)" fill="#fff">
      <path d="M 19 37 C 14.19202995300293 37 9.671830177307129 35.12767028808594 6.272079944610596 31.72792053222656 C 2.872329950332642 28.32817077636719 1 23.80797004699707 1 19 C 1 14.19202995300293 2.872329950332642 9.671830177307129 6.272079944610596 6.272079944610596 C 9.671830177307129 2.872329950332642 14.19202995300293 1 19 1 C 23.80797004699707 1 28.32817077636719 2.872329950332642 31.72792053222656 6.272079944610596 C 35.12767028808594 9.671830177307129 37 14.19202995300293 37 19 C 37 21.21129035949707 36.6038818359375 23.36642074584961 35.82265853881836 25.40553092956543 C 35.06510925292969 27.38282012939453 33.96757888793945 29.19735908508301 32.5605583190918 30.79875946044922 C 29.70805931091309 34.0452995300293 25.73966979980469 36.19200897216797 21.38640022277832 36.84344863891602 C 20.89282989501953 36.91946029663086 20.01005935668945 37 19 37 Z" stroke="none"/>
      <path d="M 19 2 C 14.45914077758789 2 10.19005966186523 3.768310546875 6.979179382324219 6.979179382324219 C 3.768310546875 10.19005966186523 2 14.45914077758789 2 19 C 2 23.54085922241211 3.768310546875 27.80994033813477 6.979179382324219 31.02082061767578 C 10.19005966186523 34.231689453125 14.45914077758789 36 19 36 C 19.95465087890625 36 20.79789924621582 35.92229080200195 21.22994995117188 35.85575103759766 L 21.23841094970703 35.85446166992188 C 25.35837936401367 35.23793029785156 29.11254119873047 33.20803833007812 31.80932998657227 30.13871002197266 C 33.13779067993164 28.62673950195312 34.17388916015625 26.91389083862305 34.88885116577148 25.04776000976562 C 35.62614822387695 23.123291015625 36 21.08852958679199 36 19 C 36 14.45914077758789 34.231689453125 10.19005966186523 31.02082061767578 6.979179382324219 C 27.80994033813477 3.768310546875 23.54085922241211 2 19 2 M 19 0 C 29.49341011047363 0 38 8.506589889526367 38 19 C 38 28.52801132202148 30.98661994934082 36.41796875 21.53440093994141 37.83243942260742 C 20.91397094726562 37.92800140380859 19.96538925170898 38 19 38 C 8.506589889526367 38 0 29.49341011047363 0 19 C 0 8.506589889526367 8.506589889526367 0 19 0 Z" stroke="none" fill="#e5610e"/>
    </g>
    <g id="Grupo_472" data-name="Grupo 472" transform="translate(1684 54)">
      <path id="Trazado_237" data-name="Trazado 237" d="M377.518,549.261v-1.507a.794.794,0,0,1,.832-.894h2.1v-3.218h-2.9a3.645,3.645,0,0,0-3.94,3.924v1.7h-1.868v3.751h1.884v9.37h3.751v-9.37h2.778l.125-1.475.22-2.276Z" transform="translate(-371.742 -543.642)" fill="#e5610e" fill-rule="evenodd"/>
    </g>
  </g>
</svg>
