<svg xmlns="http://www.w3.org/2000/svg" width="38" height="38" viewBox="0 0 38 38">
  <g id="Grupo_5719" data-name="Grupo 5719" transform="translate(-1614 -44)">
    <g id="Elipse_35" data-name="Elipse 35" transform="translate(1614 44)" fill="#fff" stroke="#e5610e" stroke-width="2">
      <circle cx="19" cy="19" r="19" stroke="none"/>
      <circle cx="19" cy="19" r="18" fill="none"/>
    </g>
    <g id="Grupo_473" data-name="Grupo 473" transform="translate(1624 54)">
      <g id="Grupo_147" data-name="Grupo 147" transform="translate(0 0)">
        <g id="Grupo_144" data-name="Grupo 144">
          <path id="Trazado_234" data-name="Trazado 234" d="M93.42,552.074H85.634a5.15,5.15,0,0,1-5.145-5.144v-7.786A5.15,5.15,0,0,1,85.634,534H93.42a5.15,5.15,0,0,1,5.145,5.144v7.786A5.15,5.15,0,0,1,93.42,552.074Zm-7.786-16.526a3.6,3.6,0,0,0-3.6,3.6v7.786a3.6,3.6,0,0,0,3.6,3.6H93.42a3.6,3.6,0,0,0,3.6-3.6v-7.786a3.6,3.6,0,0,0-3.6-3.6Z" transform="translate(-80.489 -533.999)" fill="#e5610e"/>
        </g>
        <g id="Grupo_145" data-name="Grupo 145" transform="translate(4.41 4.409)">
          <path id="Trazado_235" data-name="Trazado 235" d="M119.348,577.485a4.628,4.628,0,1,1,4.628-4.628A4.633,4.633,0,0,1,119.348,577.485Zm0-7.707a3.079,3.079,0,1,0,3.079,3.079A3.082,3.082,0,0,0,119.348,569.779Z" transform="translate(-114.72 -568.229)" fill="#e5610e"/>
        </g>
        <g id="Grupo_146" data-name="Grupo 146" transform="translate(12.752 3.032)">
          <path id="Trazado_236" data-name="Trazado 236" d="M181.706,558.651a1.112,1.112,0,1,1-1.112-1.113A1.112,1.112,0,0,1,181.706,558.651Z" transform="translate(-179.481 -557.538)" fill="#e5610e"/>
        </g>
      </g>
    </g>
  </g>
</svg>
