<svg xmlns="http://www.w3.org/2000/svg" xmlns:xlink="http://www.w3.org/1999/xlink" width="137.493" height="81.693" viewBox="0 0 137.493 81.693">
  <defs>
    <clipPath id="clip-path">
      <rect id="Rectángulo_3180" data-name="Rectángulo 3180" width="137.493" height="81.693" fill="none"/>
    </clipPath>
  </defs>
  <g id="Grupo_5715" data-name="Grupo 5715" clip-path="url(#clip-path)">
    <rect id="Rectángulo_3297" data-name="Rectángulo 3297" width="137" height="15" transform="translate(0.246 67)" fill="#e5610e"/>
    <g id="Grupo_5885" data-name="Grupo 5885" transform="translate(13.148 -0.975)">
      <path id="Trazado_4750" data-name="Trazado 4750" d="M5.964,150.345a3.22,3.22,0,0,1-1.037,1.822,2.892,2.892,0,0,1-1.864.631,2.833,2.833,0,0,1-1.625-.492,2.818,2.818,0,0,1-.962-1.041c-.061-.129-.115-.252-.164-.369a2.456,2.456,0,0,1-.113-.456,23.107,23.107,0,0,1,0-3.965,2.4,2.4,0,0,1,.278-.813,2.911,2.911,0,0,1,.963-1.053,2.779,2.779,0,0,1,1.625-.479,2.752,2.752,0,0,1,1.949.73,3.245,3.245,0,0,1,.952,1.794H4.637a1.893,1.893,0,0,0-.556-.88,1.611,1.611,0,0,0-1.021-.357,1.688,1.688,0,0,0-.761.182,1.6,1.6,0,0,0-.522.439,1.442,1.442,0,0,0-.323.71,10.535,10.535,0,0,0-.091,1.717,10.3,10.3,0,0,0,.091,1.706,1.443,1.443,0,0,0,.323.721,1.482,1.482,0,0,0,.522.428,1.439,1.439,0,0,0,.761.194,1.685,1.685,0,0,0,1.578-1.167Z" transform="translate(-0.057 -73.156)" fill="#fff"/>
      <path id="Trazado_4751" data-name="Trazado 4751" d="M19.8,144.307h1.25v7.312H25.08v1.216H19.8Z" transform="translate(-11.907 -73.263)" fill="#fff"/>
      <path id="Trazado_4752" data-name="Trazado 4752" d="M38.789,144.307h5.276v1.216H40.039v2.44h3.437v1.145H40.039v2.511h4.026v1.216H38.789Z" transform="translate(-23.332 -73.263)" fill="#fff"/>
      <path id="Trazado_4753" data-name="Trazado 4753" d="M60.708,150.927H57.576l-.635,1.907H55.616l3-8.527h1.048l3,8.527h-1.32Zm-.357-1.146-1.2-3.731h-.023l-1.2,3.731Z" transform="translate(-33.459 -73.263)" fill="#fff"/>
      <path id="Trazado_4754" data-name="Trazado 4754" d="M78.375,144.307H81.6a2.49,2.49,0,0,1,1.684.561,2.3,2.3,0,0,1,.819,1.819,2.369,2.369,0,0,1-1.595,2.363l1.912,3.784H82.937l-1.71-3.644h-1.6v3.644H78.375Zm1.251,3.738h1.9a1.316,1.316,0,0,0,1.4-1.361,1.147,1.147,0,0,0-.415-.967,1.4,1.4,0,0,0-.92-.264H79.626Z" transform="translate(-47.155 -73.263)" fill="#fff"/>
      <path id="Trazado_4755" data-name="Trazado 4755" d="M98.976,144.307h1.25v7.312h4.026v1.216H98.976Z" transform="translate(-59.552 -73.263)" fill="#fff"/>
      <rect id="Rectángulo_3179" data-name="Rectángulo 3179" width="1.25" height="8.528" transform="translate(46.984 71.044)" fill="#fff"/>
      <path id="Trazado_4756" data-name="Trazado 4756" d="M127.972,144.307h1.179l3.74,6.062h.023v-6.062h1.25v8.528H132.98l-3.735-6.062h-.023v6.062h-1.25Z" transform="translate(-77.002 -73.263)" fill="#fff"/>
      <path id="Trazado_4757" data-name="Trazado 4757" d="M150.805,144.307h5.276v1.216h-4.026v2.44h3.437v1.145h-3.437v2.511h4.026v1.216h-5.276Z" transform="translate(-90.743 -73.263)" fill="#fff"/>
      <path id="Trazado_4758" data-name="Trazado 4758" d="M178.274,150.662a3.554,3.554,0,0,0,2.347.85q1.61-.023,1.633-1.188.011-.954-1.077-1.147-.5-.07-1.093-.158a2.674,2.674,0,0,1-1.621-.814,2.308,2.308,0,0,1-.572-1.581,2.377,2.377,0,0,1,.719-1.8,2.752,2.752,0,0,1,1.976-.691,4.546,4.546,0,0,1,2.677.881l-.7,1.061a3.707,3.707,0,0,0-2.046-.656,1.525,1.525,0,0,0-.963.3,1.123,1.123,0,0,0-.414.925.959.959,0,0,0,.278.667,1.574,1.574,0,0,0,.89.421c.227.039.536.084.929.135a2.544,2.544,0,0,1,1.717.86,2.471,2.471,0,0,1,.55,1.592q-.063,2.447-2.9,2.482a4.607,4.607,0,0,1-3.153-1.164Z" transform="translate(-106.779 -73.156)" fill="#fff"/>
      <path id="Trazado_4759" data-name="Trazado 4759" d="M198.773,144.307h5.276v1.216h-4.026v2.44h3.437v1.145h-3.437v2.511h4.026v1.216h-5.276Z" transform="translate(-119.609 -73.263)" fill="#fff"/>
      <path id="Trazado_4760" data-name="Trazado 4760" d="M215.892,144.307h1.32l1.3,6.062h.023l1.6-6.062h.907l1.6,6.062h.023l1.3-6.062h1.32l-2.062,8.528h-1.048l-1.575-6.15h-.023l-1.58,6.15h-1.042Z" transform="translate(-129.911 -73.263)" fill="#fff"/>
      <path id="Trazado_4761" data-name="Trazado 4761" d="M245.042,144.307h5.276v1.216h-4.026v2.44h3.437v1.145h-3.437v2.511h4.026v1.216h-5.276Z" transform="translate(-147.453 -73.263)" fill="#fff"/>
      <path id="Trazado_4762" data-name="Trazado 4762" d="M264.027,144.307h3.227a2.492,2.492,0,0,1,1.685.561,2.3,2.3,0,0,1,.819,1.819,2.369,2.369,0,0,1-1.595,2.363l1.912,3.784h-1.486l-1.71-3.644h-1.6v3.644h-1.25Zm1.25,3.738h1.9a1.316,1.316,0,0,0,1.4-1.361,1.15,1.15,0,0,0-.415-.967,1.4,1.4,0,0,0-.92-.264h-1.965Z" transform="translate(-158.878 -73.263)" fill="#fff"/>
    </g>
    <path fill='#000' id="Trazado_4763" data-name="Trazado 4763" d="M135.8,41.4h-4.285a1.276,1.276,0,0,0-1.357,1.174v.234H119.564a1.066,1.066,0,0,1-1.066-1.066V8.722h.772a1.371,1.371,0,0,0,1.384-1.358V3.08a1.371,1.371,0,0,0-1.384-1.357H104.9a1.371,1.371,0,0,0-1.384,1.357V7.364A1.371,1.371,0,0,0,104.9,8.721h.667V46.669a7.67,7.67,0,0,0,7.67,7.67h16.923v.43a1.276,1.276,0,0,0,1.357,1.174H135.8a1.276,1.276,0,0,0,1.357-1.174V42.576A1.276,1.276,0,0,0,135.8,41.4" transform="translate(-52.541 -0.874)"/>
    <path fill='#000' id="Trazado_4764" data-name="Trazado 4764" d="M27.995,0H11.915A11.915,11.915,0,0,0,0,11.915V42.75A11.914,11.914,0,0,0,11.915,54.664h16.08A11.914,11.914,0,0,0,39.91,42.75V38.23H27.6v2.706a2.738,2.738,0,0,1-2.842,2.62H15.779a2.739,2.739,0,0,1-2.843-2.62V13.728a2.738,2.738,0,0,1,2.843-2.62h8.975a2.738,2.738,0,0,1,2.843,2.62V16.19H39.91V11.915A11.915,11.915,0,0,0,27.995,0"/>
    <path fill='#000' id="Trazado_4765" data-name="Trazado 4765" d="M238.077,16.19V11.861A11.861,11.861,0,0,0,226.216,0H210.028a11.861,11.861,0,0,0-11.861,11.861V22.453a9.225,9.225,0,0,0,9.225,9.225h14.965a2.785,2.785,0,0,1,2.785,2.785v6.473a2.738,2.738,0,0,1-2.843,2.62h-8.975a2.738,2.738,0,0,1-2.843-2.62V38.23H198.167V42.8a11.861,11.861,0,0,0,11.861,11.861h16.188A11.861,11.861,0,0,0,238.077,42.8V31.42a9.225,9.225,0,0,0-9.225-9.225H213.9a2.8,2.8,0,0,1-2.8-2.8V13.728a2.738,2.738,0,0,1,2.843-2.62h8.975a2.738,2.738,0,0,1,2.843,2.62V16.19Z" transform="translate(-100.584)"/>
  </g>
</svg>
