<svg xmlns="http://www.w3.org/2000/svg" width="38" height="38" viewBox="0 0 38 38">
  <g id="Grupo_5720" data-name="Grupo 5720" transform="translate(-1725 -44)">
    <g id="Grupo_5546" data-name="Grupo 5546" transform="translate(1725 44)">
      <g id="Trazado_4479" data-name="Trazado 4479" fill="#fff">
        <path d="M 19 37 C 14.19202995300293 37 9.671830177307129 35.12767028808594 6.272079944610596 31.72792053222656 C 2.872329950332642 28.32817077636719 1 23.80797004699707 1 19 C 1 14.19202995300293 2.872329950332642 9.671830177307129 6.272079944610596 6.272079944610596 C 9.671830177307129 2.872329950332642 14.19202995300293 1 19 1 C 23.80797004699707 1 28.32817077636719 2.872329950332642 31.72792053222656 6.272079944610596 C 35.12767028808594 9.671830177307129 37 14.19202995300293 37 19 C 37 23.80797004699707 35.12767028808594 28.32817077636719 31.72792053222656 31.72792053222656 C 28.32817077636719 35.12767028808594 23.80797004699707 37 19 37 Z" stroke="none"/>
        <path d="M 19 2 C 14.45914077758789 2 10.19005966186523 3.768310546875 6.979179382324219 6.979179382324219 C 3.768310546875 10.19005966186523 2 14.45914077758789 2 19 C 2 23.54085922241211 3.768310546875 27.80994033813477 6.979179382324219 31.02082061767578 C 10.19005966186523 34.231689453125 14.45914077758789 36 19 36 C 23.54085922241211 36 27.80994033813477 34.231689453125 31.02082061767578 31.02082061767578 C 34.231689453125 27.80994033813477 36 23.54085922241211 36 19 C 36 14.45914077758789 34.231689453125 10.19005966186523 31.02082061767578 6.979179382324219 C 27.80994033813477 3.768310546875 23.54085922241211 2 19 2 M 19 0 C 29.49341011047363 0 38 8.506589889526367 38 19 C 38 29.49341011047363 29.49341011047363 38 19 38 C 8.506589889526367 38 0 29.49341011047363 0 19 C 0 8.506589889526367 8.506589889526367 0 19 0 Z" stroke="none" fill="#e5610e"/>
      </g>
      <g id="Grupo_471" data-name="Grupo 471" transform="translate(9 9)">
        <path id="Trazado_238" data-name="Trazado 238" d="M597.357,556.74a8.093,8.093,0,0,1-4.444-1.328l-3.1.984,1-2.985a7.931,7.931,0,0,1-1.541-4.706,6.081,6.081,0,0,1,.049-.771,8.088,8.088,0,0,1,16.1.148c.017.213.017.426.017.623a8.069,8.069,0,0,1-8.084,8.035Zm4.411-6.1c-.246-.115-1.394-.688-1.607-.771-.23-.065-.377-.115-.541.131a11.439,11.439,0,0,1-.738.9c-.148.164-.279.181-.508.066a6.167,6.167,0,0,1-1.9-1.164,6.965,6.965,0,0,1-1.312-1.607c-.131-.246-.016-.361.1-.492a3.018,3.018,0,0,0,.36-.41.416.416,0,0,0,.082-.1,2.3,2.3,0,0,0,.148-.279.4.4,0,0,0-.016-.41c-.05-.115-.525-1.279-.722-1.738-.2-.476-.393-.394-.525-.394-.147,0-.295-.017-.459-.017a.806.806,0,0,0-.623.3,2.614,2.614,0,0,0-.7,2.738,5.144,5.144,0,0,0,.836,1.623,9.512,9.512,0,0,0,4.017,3.526c2.411.935,2.411.623,2.837.59a2.343,2.343,0,0,0,1.591-1.115,1.867,1.867,0,0,0,.131-1.115c-.049-.082-.213-.147-.443-.262Zm5.2-2.164a9.61,9.61,0,0,0-19.2-.18,3.433,3.433,0,0,0-.016.41,9.543,9.543,0,0,0,1.378,4.936l-1.738,5.116,5.329-1.689a9.643,9.643,0,0,0,14.267-8.363c0-.082-.016-.148-.016-.229Z" transform="translate(-587.387 -539.178)" fill="#e5610e" fill-rule="evenodd"/>
      </g>
    </g>
  </g>
</svg>
